<?xml version="1.0" standalone="no"?>
<!DOCTYPE svg PUBLIC "-//W3C//DTD SVG 20010904//EN"
 "http://www.w3.org/TR/2001/REC-SVG-20010904/DTD/svg10.dtd">
<svg version="1.0" xmlns="http://www.w3.org/2000/svg"
 width="460.000000pt" height="460.000000pt" viewBox="0 0 460.000000 460.000000"
 preserveAspectRatio="xMidYMid meet">
<metadata>
Created by potrace 1.14, written by Peter Selinger 2001-2017
</metadata>
<g transform="translate(0.000000,460.000000) scale(0.100000,-0.100000)"
fill="#000000" stroke="none">
<path d="M0 4270 c0 -285 2 -331 15 -336 19 -8 19 -38 0 -54 -18 -15 -20 -44
-2 -37 6 2 24 -7 39 -21 26 -24 36 -24 70 0 26 19 74 -11 126 -77 23 -30 42
-57 42 -60 0 -10 -28 -5 -60 11 -26 13 -37 14 -49 5 -9 -6 -26 -15 -37 -20
-15 -7 -26 -26 -35 -63 -7 -29 -13 -56 -14 -60 0 -3 -3 -9 -6 -13 -4 -3 2 -22
12 -42 20 -40 14 -53 -27 -53 -15 0 -23 -8 -26 -24 -5 -27 17 -43 66 -48 33
-3 52 -27 43 -52 -5 -13 -21 -16 -74 -16 -43 0 -63 -4 -54 -9 8 -5 12 -18 8
-31 -6 -25 -17 -25 118 3 39 8 129 26 200 40 263 51 300 59 315 72 8 7 28 15
44 19 15 4 41 17 57 29 35 25 66 14 61 -22 -3 -20 0 -21 60 -15 72 8 94 19 77
41 -9 11 -8 17 7 28 24 18 50 19 61 2 4 -6 25 -27 47 -45 l38 -33 145 2 c121
2 147 -1 161 -14 14 -15 14 -18 -1 -34 -15 -17 -41 -19 -317 -21 -195 -1 -337
-7 -403 -17 -98 -13 -355 -63 -367 -70 -3 -2 -44 -8 -90 -14 -91 -12 -165 -27
-218 -43 -31 -9 -32 -11 -32 -63 0 -39 4 -54 16 -59 8 -3 12 -11 9 -17 -4 -5
1 -19 10 -29 20 -22 13 -75 -12 -88 -13 -8 -12 -14 6 -48 12 -21 25 -46 31
-54 5 -8 16 -36 25 -61 16 -44 18 -46 73 -58 51 -11 195 -9 295 3 15 2 39 4
53 5 14 0 23 5 19 10 -3 5 5 11 17 13 12 2 24 9 26 17 4 11 0 12 -14 6 -11 -5
-31 -9 -46 -9 -14 -1 -24 -4 -21 -8 2 -5 -15 -8 -38 -8 -58 0 -39 13 46 33 43
11 76 25 85 37 8 10 37 51 64 89 35 50 63 77 98 96 52 29 50 29 188 -6 25 -6
57 -13 73 -16 15 -3 32 -14 38 -24 5 -11 20 -19 32 -19 13 0 27 -4 32 -9 6 -5
26 -11 45 -13 32 -3 35 -6 35 -36 1 -37 -18 -48 -59 -32 -38 14 -72 13 -106
-5 -37 -19 -72 -25 -86 -14 -11 9 -48 4 -199 -27 -66 -14 -83 -20 -63 -24 39
-7 76 -44 82 -82 3 -18 8 -118 11 -223 3 -117 9 -192 16 -196 6 -3 20 -5 32
-4 12 1 39 3 59 4 30 1 40 7 57 35 17 27 31 36 61 41 l40 7 0 62 c0 55 3 65
28 89 27 26 31 27 155 27 l127 0 0 26 c0 14 -27 81 -60 150 -33 68 -60 133
-60 143 0 11 -4 23 -10 26 -10 6 14 68 39 98 8 10 15 34 16 55 1 20 4 44 8 52
3 8 8 34 10 58 3 24 13 52 23 63 16 18 16 19 -2 26 -28 11 -54 36 -54 53 0 31
112 55 123 27 4 -12 16 -12 69 -2 34 7 106 20 158 30 101 18 202 47 261 73 33
15 36 20 35 55 l-1 39 48 4 c26 2 47 1 47 -1 0 -2 -20 -23 -43 -47 -47 -46
-50 -68 -10 -68 l24 0 -20 -29 c-18 -25 -31 -31 -94 -40 -39 -7 -108 -19 -152
-27 -83 -16 -87 -17 -172 -34 -28 -6 -61 -12 -71 -13 -20 -1 -19 -2 3 -29 13
-15 26 -42 30 -60 4 -18 18 -78 31 -132 13 -54 24 -113 24 -130 0 -17 8 -53
19 -81 13 -34 16 -54 9 -65 -6 -10 -5 -48 4 -110 l14 -95 47 2 c26 1 47 -1 47
-4 0 -20 -57 -72 -91 -83 -24 -8 -52 -28 -69 -51 -20 -24 -49 -44 -87 -59 -32
-13 -73 -34 -90 -47 -20 -14 -54 -26 -85 -30 -28 -3 -59 -14 -69 -24 -9 -9
-21 -14 -25 -11 -4 4 -4 1 0 -6 6 -10 12 -9 29 3 27 19 100 19 135 1 67 -36
115 -121 132 -234 6 -37 15 -159 20 -272 6 -113 13 -244 17 -291 4 -65 2 -100
-10 -140 -9 -30 -23 -92 -32 -138 -9 -47 -21 -93 -26 -103 -5 -9 -18 -67 -29
-129 -18 -102 -30 -146 -30 -107 0 21 -123 95 -199 119 -20 6 -45 17 -56 23
-35 22 -170 65 -236 75 -70 12 -79 7 -79 -42 l0 -28 23 21 c18 18 31 21 72 17
61 -6 102 -15 135 -30 48 -22 50 -26 29 -62 -13 -21 -16 -36 -9 -40 15 -9 12
-25 -4 -25 -16 0 -26 -21 -26 -56 0 -15 -6 -24 -15 -24 -20 0 -19 -16 1 -24
13 -5 15 -15 10 -45 -7 -46 1 -57 26 -34 17 15 19 15 38 -2 10 -9 26 -15 34
-12 10 4 13 1 9 -9 -3 -7 -15 -14 -28 -14 -24 0 -40 -24 -29 -42 4 -7 10 -4
16 6 6 11 16 15 30 10 15 -4 18 -3 13 6 -6 9 -4 11 4 6 7 -5 17 -20 22 -34 7
-19 12 -23 18 -13 6 10 10 9 15 -4 4 -11 12 -14 26 -10 13 4 20 2 20 -7 0 -7
4 -19 9 -27 8 -13 12 -13 26 -1 15 13 20 11 43 -15 14 -17 29 -29 34 -28 4 2
8 -4 8 -12 0 -8 6 -15 14 -15 8 0 16 -7 20 -15 4 -11 13 -14 31 -9 16 4 25 2
25 -5 0 -10 59 -43 80 -45 3 -1 19 -13 35 -29 16 -15 45 -32 62 -38 18 -6 33
-14 33 -18 0 -4 23 -22 50 -40 28 -18 50 -36 50 -41 0 -4 10 -6 23 -3 20 4 21
3 5 -10 -10 -8 -18 -20 -18 -28 0 -9 3 -10 8 -3 4 6 17 13 30 17 18 4 21 3 12
-8 -8 -10 3 -16 57 -29 37 -10 82 -19 98 -22 29 -4 29 -4 7 8 -13 6 -26 24
-29 40 -3 15 -10 28 -15 28 -6 0 -8 9 -5 20 4 15 0 20 -13 20 -20 0 -52 38
-44 51 5 9 47 4 99 -12 17 -4 48 -10 70 -13 22 -2 48 -8 58 -11 13 -6 16 -3
11 9 -9 24 11 19 29 -7 8 -12 18 -19 22 -15 4 4 0 19 -9 33 -9 14 -14 25 -11
25 3 0 14 -15 25 -32 11 -18 20 -26 20 -18 1 11 4 10 15 -4 8 -11 18 -16 22
-13 4 4 1 13 -5 19 -15 15 -16 28 -2 28 6 0 10 -7 10 -15 0 -8 3 -15 8 -16 4
0 15 -2 24 -4 24 -5 31 23 8 35 -11 6 -36 9 -57 8 -56 -5 -53 19 4 27 62 8 93
23 86 42 -3 8 -12 12 -20 9 -8 -3 -11 -1 -8 4 4 6 19 9 33 8 15 -1 33 1 40 6
17 10 15 76 -3 96 -18 20 -48 209 -39 247 4 16 13 36 22 45 9 11 16 45 19 87
2 51 12 88 33 133 17 35 30 71 30 81 0 9 10 27 22 39 27 27 40 128 16 128 -47
0 -88 -77 -88 -163 0 -19 -12 -56 -26 -83 -30 -57 -50 -82 -36 -44 5 14 13 50
17 80 4 30 13 59 20 65 17 13 30 91 16 99 -5 4 -35 -5 -65 -20 -55 -26 -56
-27 -56 -70 0 -23 4 -45 9 -48 10 -6 -2 -88 -24 -166 -17 -60 -20 -70 -35
-147 -14 -69 -62 -186 -75 -182 -5 2 -9 11 -8 19 3 28 40 166 46 177 4 6 9 90
11 187 3 131 1 178 -8 186 -7 5 -16 7 -19 3 -4 -3 -6 14 -6 38 1 24 4 34 6 22
5 -28 -2 -27 86 -3 104 28 196 72 197 91 0 34 -56 31 -77 -4 -12 -20 -127 -67
-163 -67 -32 0 -32 0 -27 43 3 23 10 63 17 89 8 32 10 127 8 290 l-3 243 25
-25 c95 -96 191 -140 304 -140 l69 0 55 58 c38 39 53 50 49 34 -4 -12 -10 -32
-14 -44 -4 -13 -2 -19 4 -15 15 10 22 -38 12 -81 -13 -56 -11 -82 5 -76 9 3
17 -5 24 -23 5 -16 18 -37 27 -47 16 -16 17 -25 6 -103 -7 -48 -19 -99 -27
-114 -12 -25 -18 -28 -47 -22 -17 3 -36 9 -42 13 -20 15 -93 22 -101 9 -9 -15
22 -39 53 -39 27 0 90 -29 96 -44 3 -7 -6 -11 -22 -10 -14 1 -26 3 -26 4 0 1
-15 3 -34 5 -18 2 -38 8 -44 14 -13 13 -44 15 -51 3 -6 -10 14 -104 24 -117 5
-6 -9 -46 -31 -93 -21 -45 -39 -86 -39 -90 0 -4 -7 -20 -15 -36 -12 -22 -14
-49 -11 -105 19 -293 19 -301 2 -301 -10 0 -19 -11 -23 -30 -3 -17 -10 -33
-14 -36 -29 -18 12 -50 42 -34 8 4 31 10 52 13 21 3 49 15 62 27 21 20 25 21
52 7 l28 -15 -25 -11 c-14 -5 -60 -18 -103 -27 -70 -15 -78 -18 -75 -38 3 -18
9 -21 45 -20 26 0 51 8 63 19 11 10 23 15 26 12 8 -8 -13 -39 -65 -97 -29 -31
-41 -40 -41 -27 0 31 -19 18 -31 -23 -7 -22 -16 -40 -21 -40 -5 0 -7 -4 -4 -8
6 -10 165 4 191 18 20 10 209 31 475 52 151 11 174 20 182 64 3 16 -7 17 -117
15 -127 -2 -236 -16 -246 -32 -3 -6 -11 -4 -18 4 -23 29 12 43 150 61 74 9
170 20 214 24 l79 7 28 54 c17 36 25 64 21 82 -3 15 0 30 6 33 7 5 11 -2 11
-18 0 -14 5 -28 12 -32 8 -5 9 0 6 14 -5 17 -2 22 13 22 10 0 19 3 19 8 0 4
18 20 39 35 30 22 41 41 56 89 12 42 29 71 57 99 22 21 43 39 48 39 4 0 10 9
13 20 3 13 10 18 21 14 9 -3 16 -1 16 5 0 23 19 10 22 -16 4 -33 28 -44 28
-12 0 13 -15 36 -38 56 -32 29 -35 35 -21 43 21 12 14 61 -7 53 -9 -3 -14 2
-14 17 0 18 -3 20 -14 11 -11 -9 -13 -4 -10 26 2 21 0 31 -4 23 -4 -8 -14 -16
-22 -18 -8 -2 -33 -18 -55 -36 -64 -52 -231 -126 -284 -126 -31 0 -50 11 -45
25 8 21 -13 53 -46 70 -28 14 -30 20 -30 71 0 49 2 55 26 64 18 7 24 15 20 28
-3 9 -10 39 -17 65 -7 27 -21 58 -33 69 -12 10 -21 23 -21 28 0 5 -9 16 -20
24 -17 12 -20 25 -19 103 1 84 19 451 31 598 6 84 -9 139 -47 175 -36 34 -100
117 -100 130 0 17 39 11 68 -10 25 -18 31 -19 77 -7 40 9 51 17 53 35 3 20 -1
22 -37 22 -22 0 -52 -5 -67 -10 -32 -13 -42 -6 -24 15 10 12 10 21 2 40 -7 14
-16 25 -21 25 -5 0 -11 9 -14 20 -4 16 -1 19 17 14 18 -4 25 2 43 46 l21 50
-51 30 c-35 20 -45 30 -31 30 11 0 29 -7 40 -15 24 -18 54 -19 54 -2 0 6 16
44 35 82 l34 70 1 -63 0 -64 93 8 c100 7 127 14 56 14 -35 0 -45 4 -47 18 -1
9 -5 41 -8 70 l-6 52 35 15 c20 8 66 24 104 35 37 12 91 32 118 45 28 13 79
29 115 35 36 6 85 16 110 21 25 5 63 10 84 11 39 3 40 3 51 -42 12 -51 38 -70
96 -70 20 0 58 -7 84 -15 31 -9 54 -11 65 -5 20 11 41 -6 33 -26 -6 -16 -34
-19 -48 -5 -6 5 -44 11 -85 13 l-75 3 -3 -37 c-2 -20 3 -52 11 -70 15 -35 15
-35 92 -41 102 -9 127 -9 144 2 12 8 12 12 -3 26 -32 32 -17 65 44 96 30 16
49 29 42 29 -7 0 -10 5 -7 10 3 6 12 10 19 10 10 0 13 -16 11 -62 -2 -35 -6
-71 -10 -80 -5 -13 0 -19 20 -24 25 -6 27 -10 21 -42 -3 -19 -9 -38 -13 -41
-4 -3 -10 -13 -12 -21 -1 -8 -9 -38 -17 -67 -7 -29 -11 -60 -8 -68 10 -24 -25
-44 -76 -45 -25 0 -63 -5 -85 -10 -71 -16 -202 -23 -209 -11 -4 6 -1 11 6 11
8 0 23 7 35 15 l22 15 -20 58 c-11 31 -28 69 -39 84 -11 15 -20 34 -20 43 0 9
-9 15 -26 15 -14 0 -23 4 -19 10 10 16 -173 19 -184 3 -3 -4 -28 -16 -56 -26
-47 -17 -50 -17 -62 -1 -7 10 -16 15 -19 11 -7 -7 33 -68 53 -80 7 -4 13 -18
13 -30 0 -48 24 -64 104 -70 42 -3 90 -12 106 -21 17 -8 36 -13 43 -11 15 6
44 -12 35 -21 -4 -3 -59 -1 -123 6 -98 11 -118 11 -125 0 -11 -18 -3 -30 20
-30 32 0 47 -27 63 -114 9 -47 23 -110 32 -141 l16 -55 62 0 c90 0 197 18 235
37 25 14 36 15 50 6 14 -8 29 -8 62 0 l42 12 -5 53 c-6 60 -10 67 -27 57 -7
-4 -10 -19 -6 -36 6 -31 -2 -37 -22 -17 -9 9 -12 9 -12 0 0 -24 -58 -44 -103
-35 l-42 9 -13 84 c-16 104 -16 121 0 131 19 12 25 3 32 -50 6 -49 35 -90 43
-63 3 6 18 12 33 12 16 0 35 8 42 18 8 12 25 18 48 17 33 0 35 2 38 34 2 18
-1 38 -7 44 -19 19 -12 24 37 27 92 5 108 3 163 -23 73 -34 89 -66 89 -176 0
-89 -6 -81 75 -108 17 -6 38 -14 48 -18 16 -7 17 22 17 533 0 333 -4 543 -10
547 -5 3 -7 12 -4 19 4 11 -8 15 -50 18 -31 1 -56 -1 -56 -5 0 -4 -10 -2 -22
4 -22 12 -22 12 -3 19 11 4 23 6 28 3 4 -2 7 0 7 6 0 6 17 13 38 17 60 11 72
21 72 60 0 34 -2 35 -27 30 -75 -16 -209 -39 -301 -51 -62 -8 -110 -19 -120
-28 -9 -9 -29 -20 -43 -25 -21 -8 -28 -7 -37 9 -7 10 -21 19 -32 19 -22 0 -26
-10 -8 -28 8 -8 8 -15 -2 -26 -17 -22 -5 -66 19 -66 11 0 33 13 49 29 54 55
120 48 105 -10 -5 -17 -2 -20 13 -17 10 2 20 10 20 18 1 8 2 20 3 25 1 14 76
36 95 29 10 -4 14 -15 12 -29 -6 -30 8 -49 29 -41 10 3 55 9 100 12 84 6 109
-2 80 -26 -8 -7 -15 -22 -15 -35 0 -13 -9 -26 -22 -33 -18 -8 -19 -11 -5 -11
9 -1 17 -8 17 -17 0 -11 -8 -14 -32 -12 -33 3 -35 8 -23 41 6 15 2 17 -25 15
-36 -3 -49 -16 -29 -29 11 -6 11 -13 3 -26 -29 -47 -60 -56 -304 -84 -76 -8
-86 -7 -98 8 -21 29 -9 47 42 64 52 17 77 43 51 53 -8 3 -19 -3 -24 -12 -6
-10 -11 -12 -11 -4 0 23 -135 5 -170 -23 -8 -7 -25 -18 -38 -24 -20 -11 -25
-9 -41 10 -18 22 -19 22 -128 11 -61 -7 -182 -25 -270 -41 -88 -17 -188 -33
-221 -37 l-62 -7 0 -36 0 -36 -22 33 c-17 24 -28 31 -43 27 -52 -15 -125 -17
-140 -5 -19 16 -19 34 0 54 14 14 13 16 -12 22 -15 3 -33 7 -40 9 -7 2 -10 -2
-7 -10 4 -10 0 -12 -15 -8 -28 7 -68 -4 -89 -25 -10 -10 -33 -22 -52 -28 -34
-9 -35 -11 -34 -59 1 -28 4 -57 8 -67 5 -12 1 -18 -16 -23 -13 -4 -31 -14 -41
-23 -16 -15 -18 -14 -24 6 -3 12 -9 22 -14 22 -13 0 -11 -14 4 -29 10 -11 10
-14 -1 -18 -6 -3 -12 -13 -12 -23 0 -11 -10 -20 -30 -23 -29 -6 -43 -27 -17
-27 8 0 7 -4 -3 -10 -20 -13 -73 -13 -65 0 8 13 -38 8 -47 -5 -5 -6 -12 -5
-17 5 -6 8 -13 11 -17 7 -10 -10 -33 24 -34 50 0 12 -6 23 -12 26 -10 3 -10 7
0 20 17 20 9 99 -13 145 -18 36 -35 42 -35 12 0 -43 -49 -43 -111 1 -31 22
-40 45 -13 35 10 -4 14 -1 12 6 -3 7 -19 13 -36 13 -16 0 -32 2 -34 5 -41 51
-48 67 -48 106 0 31 7 51 26 73 38 46 48 37 14 -12 -25 -34 -29 -48 -24 -75 7
-33 27 -47 22 -14 -2 9 3 16 10 14 6 -1 12 7 12 18 0 22 10 26 27 9 8 -8 9
-19 2 -37 -17 -44 -4 -70 39 -78 20 -4 45 -13 55 -22 21 -18 35 -9 18 12 -14
17 -11 71 4 71 6 0 16 4 24 9 8 5 16 4 22 -5 5 -8 9 -9 9 -4 0 6 7 -1 14 -15
8 -14 12 -28 10 -32 -8 -13 38 -87 58 -94 10 -3 18 -12 18 -20 0 -8 3 -14 8
-15 4 0 14 -2 23 -4 15 -3 36 33 54 93 4 15 12 21 21 18 9 -4 14 2 14 16 0 12
-3 18 -7 15 -3 -4 -17 16 -30 44 -21 43 -23 58 -17 107 4 31 7 67 5 80 -3 31
94 126 122 118 13 -3 17 0 13 10 -4 10 2 14 19 14 14 0 25 -4 25 -10 0 -14 27
-12 34 3 3 8 8 7 16 -6 7 -11 18 -16 30 -12 29 9 21 -35 -8 -46 -20 -8 -22
-12 -12 -25 11 -12 7 -20 -23 -48 -21 -19 -37 -38 -37 -44 0 -13 60 -77 74
-78 6 0 24 -6 39 -12 71 -29 152 -23 182 14 6 7 21 14 33 16 20 3 27 -4 42
-46 19 -48 46 -86 62 -86 4 0 7 3 6 8 -2 7 8 58 18 95 4 14 17 17 67 17 86 0
313 21 328 31 10 6 8 14 -10 33 -26 28 -21 46 15 46 13 0 32 4 42 9 71 39 215
79 312 88 25 2 52 7 60 10 8 3 58 7 110 8 122 3 390 36 390 47 0 19 -393 -4
-655 -38 -66 -9 -151 -20 -190 -25 -38 -4 -110 -13 -160 -19 -177 -22 -235
-24 -235 -7 0 8 12 18 28 21 82 21 164 39 215 49 112 21 57 33 -143 30 -51 -1
-86 -6 -88 -13 -3 -7 -9 -7 -20 2 -12 11 -16 11 -20 -1 -3 -8 -10 3 -18 24 -7
21 -11 42 -8 47 3 4 136 5 297 2 220 -4 309 -9 359 -21 59 -15 75 -15 130 -3
35 7 155 16 268 19 l205 6 3 45 c4 63 6 67 49 74 21 4 57 12 81 18 l42 12 0
328 c0 318 -1 328 -19 328 -11 0 -22 4 -25 9 -3 5 -14 7 -25 4 -13 -3 -20 2
-24 17 -3 13 -10 19 -16 15 -6 -3 -9 -11 -5 -16 3 -6 -4 -21 -15 -33 -12 -13
-19 -30 -16 -38 5 -11 -8 -26 -39 -48 -25 -17 -46 -35 -46 -40 0 -13 -46 -13
-71 0 -20 11 -26 54 -9 65 6 3 10 17 10 30 0 13 4 27 10 30 16 10 12 22 -11
28 -13 4 -19 12 -17 24 3 14 11 17 37 15 19 -2 40 3 49 11 10 9 34 18 54 22
21 4 35 11 33 16 -11 16 31 28 67 19 28 -8 38 -19 56 -57 l21 -48 0 183 1 182
-120 0 -120 0 0 -30 c0 -16 5 -30 10 -30 6 0 10 -5 10 -10 0 -13 -59 -3 -107
17 -40 16 -136 17 -166 2 -58 -31 -113 -118 -105 -166 3 -16 15 -51 26 -80
l21 -52 -24 -30 c-14 -16 -25 -36 -25 -46 0 -29 -19 -54 -56 -71 -33 -16 -36
-16 -48 2 -8 10 -24 51 -37 92 -24 77 -38 92 -88 92 -24 0 -31 -4 -31 -19 0
-11 4 -22 9 -26 5 -3 17 -27 27 -53 10 -26 31 -64 47 -85 l30 -39 -7 -121 c-4
-66 -12 -127 -18 -134 -7 -9 -37 -13 -91 -13 -72 0 -182 -15 -487 -66 -52 -9
-100 -21 -107 -28 -9 -8 -9 -23 -1 -61 12 -57 20 -65 68 -65 26 0 31 -3 20
-10 -8 -5 -26 -10 -40 -10 -17 0 -32 -10 -45 -30 -11 -16 -23 -30 -27 -30 -3
0 -17 19 -31 43 -14 23 -43 59 -64 79 -51 50 -149 108 -161 96 -5 -5 -26 -1
-53 11 -40 19 -41 20 -14 18 24 -2 30 2 30 18 0 25 -32 22 -57 -7 -9 -11 -22
-17 -29 -13 -6 4 -28 9 -48 12 -89 10 -89 9 -44 56 23 23 44 52 47 64 8 24 79
63 115 63 28 0 62 -18 79 -42 8 -10 25 -18 43 -18 17 0 39 -5 50 -11 21 -11
63 -3 55 10 -9 15 15 81 29 81 28 0 65 -24 65 -42 0 -10 -9 -27 -20 -38 l-20
-20 25 -10 c16 -6 62 -6 127 0 156 15 166 18 185 54 9 17 21 34 27 39 13 9 77
-1 91 -14 5 -5 24 -9 43 -9 29 0 33 -3 30 -22 -2 -14 -12 -24 -27 -28 -14 -3
-27 -12 -29 -19 -3 -10 13 -12 81 -10 47 2 88 7 91 10 3 3 9 26 12 50 3 24 12
58 18 74 7 18 9 42 5 60 -4 17 -15 64 -23 105 -17 78 -28 93 -128 170 -22 17
-28 30 -28 60 0 21 5 42 11 46 6 3 9 19 7 35 -3 17 1 34 9 40 16 14 17 50 1
84 l-11 25 -159 0 c-172 0 -165 3 -149 -60 5 -19 12 -52 16 -73 4 -28 13 -41
33 -50 30 -13 61 -46 62 -63 0 -20 -25 -34 -83 -45 -74 -15 -102 -7 -116 32
-6 17 -8 36 -4 42 10 16 11 187 2 187 -4 0 -7 -10 -7 -22 1 -13 0 -41 -1 -63
-3 -37 -4 -35 -15 25 -6 36 -15 71 -19 78 -6 9 -67 12 -253 12 l-244 -1 0 -22
-1 -22 -12 21 c-12 21 -19 22 -215 23 l-203 2 7 -168 c3 -92 7 -169 9 -171 1
-1 16 10 34 25 30 27 44 70 18 60 -6 -2 -18 2 -25 9 -11 12 -10 14 5 15 10 1
21 1 24 1 3 -1 16 17 28 39 12 21 26 39 30 39 5 0 21 -18 36 -40 23 -33 25
-42 15 -55 -7 -8 -21 -15 -31 -15 -24 0 -37 -33 -47 -118 -8 -80 -19 -85 -82
-43 -25 17 -55 31 -67 31 -43 0 -71 18 -75 47 -3 26 -8 29 -61 39 -32 7 -60
14 -62 16 -2 2 -6 22 -9 46 -7 62 -26 92 -78 126 -52 34 -58 54 -28 81 11 10
20 22 20 27 0 9 -273 11 -307 2 -13 -4 -23 -13 -23 -20 0 -9 -11 -14 -30 -14
-32 0 -80 19 -80 32 0 4 -213 8 -474 8 l-475 0 -18 -23 c-10 -13 -24 -26 -31
-31 -17 -10 -42 11 -42 35 0 18 -11 19 -210 19 l-210 0 0 -330z m2750 260 c0
-5 -4 -10 -10 -10 -5 0 -10 5 -10 10 0 6 5 10 10 10 6 0 10 -4 10 -10z m1667
-35 c3 -9 3 -19 -1 -22 -7 -7 -36 16 -36 28 0 15 30 10 37 -6z m-1465 -50 c9
-21 8 -28 -7 -45 -22 -24 -41 -26 -49 -4 -8 21 -8 59 1 67 15 15 44 5 55 -18z
m-1292 -2 c0 -10 3 -28 6 -40 5 -18 0 -25 -27 -36 -61 -26 -99 -35 -104 -27
-9 15 7 40 26 40 11 0 31 17 47 40 29 42 52 52 52 23z m1004 -24 c-7 -12 -34
-11 -34 1 0 6 4 10 10 10 5 0 7 8 4 18 -5 15 -4 15 10 -2 8 -10 13 -23 10 -27z
m1780 -5 c8 -22 -4 -40 -15 -23 -11 18 -11 39 0 39 5 0 12 -7 15 -16z m-3306
-29 c-3 -14 -1 -28 3 -31 5 -3 9 -18 9 -34 0 -28 -14 -41 -37 -33 -17 6 -17
52 0 59 9 3 12 16 9 34 -3 20 0 30 8 30 8 0 11 -9 8 -25z m2051 -49 c-5 -6 -9
7 -8 35 l1 44 8 -35 c5 -20 5 -39 -1 -44z m-524 54 c3 -6 -4 -10 -17 -10 -18
0 -20 2 -8 10 19 12 18 12 25 0z m-138 -16 c8 -20 -16 -35 -42 -28 -29 9 -31
13 -9 29 25 19 43 19 51 -1z m-2253 -30 c25 -10 19 -22 -9 -16 -14 2 -22 8
-19 13 6 11 8 11 28 3z m-44 -19 c0 -9 -9 -15 -25 -15 -29 0 -34 16 -7 23 30
8 32 7 32 -8z m-30 -52 c11 -10 20 -27 20 -38 0 -23 13 -46 26 -48 5 -1 8 -12
6 -24 -2 -17 2 -23 18 -23 23 0 26 -18 7 -45 -16 -21 -37 -12 -37 16 0 10 -7
19 -15 19 -23 0 -19 -47 5 -53 20 -5 29 -47 11 -47 -16 0 -22 18 -9 23 7 2 -5
10 -27 17 -45 13 -82 57 -85 100 -6 73 0 101 23 110 31 12 34 12 57 -7z m1030
-42 c13 -49 14 -48 -17 -54 -56 -11 -88 64 -41 97 27 19 44 7 58 -43z m1258
19 c29 0 32 -3 32 -32 0 -42 -37 -172 -61 -215 -10 -18 -19 -40 -19 -48 0 -9
-9 -23 -20 -32 -24 -21 -26 -35 -4 -31 10 2 19 -3 21 -9 6 -16 -19 -17 -35 -1
-9 9 -19 7 -43 -11 -37 -28 -59 -15 -59 34 0 26 10 44 46 82 63 66 104 131
104 165 0 16 -9 47 -20 70 l-19 40 22 -6 c12 -3 37 -6 55 -6z m1732 -26 c0
-14 -4 -23 -9 -20 -4 3 -19 -6 -31 -19 -23 -25 -24 -25 -44 -6 -12 10 -30 21
-40 23 -11 1 -21 8 -23 15 -3 7 3 10 15 6 11 -2 33 2 48 11 16 8 41 15 57 16
22 0 27 -4 27 -26z m-2220 -18 c0 -2 -7 -7 -16 -10 -8 -3 -12 -2 -9 4 6 10 25
14 25 6z m-1702 -23 c-4 -22 -22 -20 -26 1 -2 10 3 16 13 16 10 0 15 -7 13
-17z m2756 -62 c3 -5 -3 -20 -13 -32 l-20 -24 -23 23 c-20 19 -21 24 -8 32 19
12 57 13 64 1z m-1166 -93 c-3 -7 -17 -14 -31 -16 -21 -3 -26 0 -21 12 7 19
58 22 52 4z m-133 -8 c3 -5 -3 -10 -14 -10 -12 0 -21 5 -21 10 0 6 6 10 14 10
8 0 18 -4 21 -10z m1272 -16 c8 -22 -19 -45 -55 -48 -31 -2 -42 9 -42 39 0 26
87 34 97 9z m-1223 -42 c9 -15 -10 -32 -44 -38 l-35 -5 30 25 c32 28 41 31 49
18z m80 -28 c9 -3 16 -15 16 -25 0 -10 7 -19 15 -19 8 0 15 -5 15 -11 0 -5 -4
-8 -9 -5 -5 4 -7 -3 -4 -14 3 -11 10 -20 16 -20 6 0 23 -15 39 -32 23 -26 26
-34 14 -36 -26 -5 -126 107 -126 140 0 30 1 31 24 22z m-327 -21 c3 -9 1 -39
-6 -67 -6 -28 -12 -59 -12 -70 0 -10 -9 -20 -19 -23 -27 -7 -58 -60 -66 -112
-10 -63 -28 -76 -125 -89 -51 -7 -88 -18 -95 -27 -14 -19 -35 -19 -60 0 -27
20 -57 18 -72 -5 -22 -35 -67 -18 -85 32 -3 9 -22 19 -45 23 -38 6 -42 4 -90
-44 -28 -28 -55 -51 -60 -51 -5 0 -8 20 -8 44 1 33 -5 50 -21 68 -27 29 -29
69 -8 148 8 30 15 76 15 101 0 26 6 51 13 57 18 15 44 -7 54 -49 6 -23 18 -38
39 -48 55 -26 64 -39 57 -87 -3 -24 -2 -44 3 -45 5 0 47 -2 94 -4 51 -2 110
-11 149 -24 79 -26 91 -26 91 -1 0 11 6 21 13 21 6 1 19 3 27 4 8 1 20 3 27 4
9 1 12 27 10 94 -2 73 2 100 17 130 l18 37 69 0 c56 0 71 -3 76 -17z m108 -40
c-23 -20 -75 -32 -75 -18 0 11 64 43 82 42 18 -1 17 -4 -7 -24z m-1198 -19
c12 -26 8 -54 -8 -54 -5 0 -9 7 -9 15 0 9 -7 18 -15 21 -8 4 -15 16 -15 29 0
31 31 23 47 -11z m1613 -84 c0 -5 -5 -10 -11 -10 -5 0 -7 5 -4 10 3 6 8 10 11
10 2 0 4 -4 4 -10z m1733 -54 c3 -8 2 -39 -3 -68 -4 -29 -5 -57 0 -61 11 -12
165 8 342 43 81 17 170 30 197 30 27 0 62 5 76 10 23 9 28 7 32 -9 2 -10 16
-24 30 -30 50 -23 9 -35 -140 -42 -78 -4 -182 -15 -232 -24 -234 -43 -305 -56
-370 -66 -187 -29 -195 -29 -195 -3 0 8 6 23 12 34 11 16 9 22 -7 34 -32 23
-10 31 85 31 49 0 94 5 99 10 7 7 7 22 0 48 -13 49 1 77 40 77 16 0 31 -7 34
-14z m-950 -63 c-7 -2 -19 -2 -25 0 -7 3 -2 5 12 5 14 0 19 -2 13 -5z m-2419
-52 c3 -4 24 -11 46 -15 30 -5 40 -11 38 -22 -4 -21 -162 -28 -179 -8 -13 16
-4 34 17 34 8 0 12 5 9 10 -4 6 8 10 29 10 19 0 37 -4 40 -9z m3041 -31 c0
-16 -9 -29 -27 -39 -25 -15 -28 -14 -53 13 -14 16 -24 33 -22 40 3 6 26 11 53
11 45 0 49 -2 49 -25z m-1405 -7 c0 -5 -12 -19 -25 -32 -28 -26 -34 -12 -8 19
18 20 33 26 33 13z m-1330 -57 c0 -9 -40 -13 -46 -5 -3 5 6 9 20 9 14 0 26 -2
26 -4z m50 -16 c0 -5 -5 -10 -11 -10 -5 0 -7 5 -4 10 3 6 8 10 11 10 2 0 4 -4
4 -10z m2173 -209 c9 -16 17 -34 17 -40 0 -12 -101 -6 -109 7 -3 5 -13 12 -21
15 -9 3 -4 6 11 6 18 1 28 8 32 22 3 12 10 18 16 14 6 -3 11 -2 11 4 0 18 25
1 43 -28z m251 8 c-3 -5 -10 -7 -15 -3 -5 3 -7 10 -3 15 3 5 10 7 15 3 5 -3 7
-10 3 -15z m-2620 -149 c-5 -5 -29 -11 -54 -14 -25 -2 -61 -7 -80 -11 -31 -6
-33 -5 -15 6 33 22 169 39 149 19z m1329 -96 l37 -7 0 -57 c0 -31 5 -71 11
-89 6 -17 8 -46 5 -65 -6 -32 -7 -33 -80 -42 -41 -5 -79 -8 -85 -6 -6 2 -11
22 -11 45 0 23 -7 66 -14 96 -28 103 18 144 137 125z m2527 -134 c0 -5 -4 -10
-10 -10 -5 0 -10 5 -10 10 0 6 5 10 10 10 6 0 10 -4 10 -10z m-1585 -140 c3
-5 20 -10 36 -10 17 0 28 -4 25 -8 -8 -13 -74 -1 -80 14 -6 16 10 19 19 4z
m-947 -27 c-3 -25 -8 -29 -52 -36 -59 -10 -76 -4 -76 23 0 25 30 39 88 39 41
1 43 0 40 -26z m-1023 -3 c4 -6 -7 -10 -27 -9 -31 1 -32 1 -8 9 14 4 26 8 27
9 1 1 5 -3 8 -9z m1835 -10 c0 -5 -5 -10 -11 -10 -5 0 -7 5 -4 10 3 6 8 10 11
10 2 0 4 -4 4 -10z m174 -56 c3 -8 10 -13 16 -9 9 6 50 -13 61 -29 4 -5 14 -6
22 -3 11 4 15 0 14 -14 -1 -16 -6 -19 -32 -13 -16 4 -32 9 -35 13 -12 15 -51
30 -65 25 -11 -5 -15 1 -15 20 0 29 24 36 34 10z m-61 -46 c23 -12 49 -21 57
-19 8 2 11 -1 7 -5 -4 -5 -31 -9 -60 -10 -51 -3 -52 -2 -54 27 -1 16 0 29 3
29 3 0 24 -10 47 -22z m0 -55 c-7 -2 -19 -2 -25 0 -7 3 -2 5 12 5 14 0 19 -2
13 -5z m-72 -34 c5 -11 19 -19 29 -19 11 0 20 -7 20 -15 0 -8 9 -15 19 -15 11
0 23 -4 26 -10 3 -5 15 -10 25 -10 11 0 28 -10 40 -22 22 -23 27 -44 9 -32
-22 13 -149 31 -149 21 0 -6 -8 -3 -18 6 -10 10 -24 17 -30 17 -18 0 -14 18 5
29 10 5 15 13 11 17 -4 4 -14 1 -23 -6 -12 -10 -18 -10 -30 0 -14 11 -13 14 5
27 11 8 20 20 20 28 0 19 28 8 41 -16z m-461 1 c0 -11 -4 -20 -10 -20 -5 0
-10 9 -10 20 0 11 5 20 10 20 6 0 10 -9 10 -20z m-340 -19 c-5 -11 -15 -23
-20 -26 -14 -9 -12 19 2 33 19 19 30 14 18 -7z m273 -8 c-4 -11 -8 -12 -11 -5
-7 21 -21 13 -24 -15 -2 -20 -8 -27 -20 -25 -21 3 -35 -18 -18 -28 9 -6 9 -13
-1 -31 -11 -20 -14 -21 -17 -6 -4 19 -13 22 -27 8 -6 -6 -17 0 -28 15 -16 22
-17 25 -2 30 9 4 21 2 28 -5 6 -6 16 -11 22 -11 5 0 5 4 -2 8 -17 11 -5 52 14
45 8 -3 23 4 34 16 24 26 61 29 52 4z m1897 -177 c0 -11 -19 -15 -25 -6 -3 5
1 10 9 10 9 0 16 -2 16 -4z m-2500 -321 c0 -8 -2 -15 -4 -15 -2 0 -6 7 -10 15
-3 8 -1 15 4 15 6 0 10 -7 10 -15z m117 -222 c-4 -3 1 -12 11 -20 15 -13 15
-13 -6 -3 -19 9 -23 30 -5 30 4 0 3 -3 0 -7z m340 -575 c-3 -8 -6 -5 -6 6 -1
11 2 17 5 13 3 -3 4 -12 1 -19z m601 -59 c-6 -4 -8 -20 -4 -40 13 -69 17 -125
7 -103 -13 29 -25 150 -16 164 6 9 10 9 16 -1 4 -8 3 -16 -3 -20z m-120 -221
c-4 -82 -3 -158 2 -178 13 -46 13 -220 0 -220 -5 0 -16 -21 -24 -47 -13 -42
-15 -44 -15 -17 -1 16 -7 36 -13 42 -10 10 -13 71 -15 227 -2 221 3 257 46
334 22 40 26 9 19 -141z m82 -108 c0 -5 -2 -10 -4 -10 -3 0 -8 5 -11 10 -3 6
-1 10 4 10 6 0 11 -4 11 -10z m15 -168 c-4 -51 -11 -90 -16 -86 -11 6 -12 207
-2 218 16 16 24 -44 18 -132z m-639 51 c-5 -12 -10 -13 -17 -6 -8 8 -7 18 2
34 12 21 14 22 17 6 2 -10 1 -25 -2 -34z m180 -113 c0 -71 -3 -100 -12 -100
-22 0 -36 28 -29 62 8 41 35 138 38 138 1 0 2 -45 3 -100z m-198 6 c4 -20 -16
-48 -29 -40 -11 6 -12 48 -2 58 11 10 28 1 31 -18z m11 -146 c23 -7 46 -19 52
-27 6 -7 17 -13 23 -13 6 0 24 -7 39 -15 15 -8 34 -12 42 -9 16 6 55 -12 55
-26 0 -6 -11 -10 -25 -10 -29 0 -198 65 -235 90 -14 9 -33 20 -42 23 -10 4
-18 12 -17 19 0 9 2 9 5 2 6 -15 44 -6 45 10 0 6 4 2 9 -10 4 -11 26 -26 49
-34z m-93 -50 c5 -5 27 -12 49 -15 49 -7 156 -56 152 -69 -4 -11 -57 -12 -108
-2 -20 3 -51 20 -68 36 -17 17 -35 30 -41 30 -5 0 -10 7 -10 15 0 17 11 20 26
5z"/>
<path d="M2883 3857 c5 -15 39 -16 44 -2 2 6 -8 12 -23 13 -17 1 -24 -2 -21
-11z"/>
<path d="M2933 3796 c-49 -35 -33 -40 65 -20 19 4 21 8 12 24 -14 26 -37 25
-77 -4z"/>
<path d="M3101 3802 c-20 -7 -13 -42 8 -42 27 0 71 18 71 29 0 9 -60 19 -79
13z"/>
<path d="M4303 3012 c-72 -2 -93 -6 -93 -17 0 -8 4 -16 8 -19 8 -5 173 22 181
29 8 9 -4 10 -96 7z"/>
<path d="M2400 2829 c0 -5 5 -7 10 -4 6 3 10 8 10 11 0 2 -4 4 -10 4 -5 0 -10
-5 -10 -11z"/>
<path d="M375 2669 c-16 -4 -48 -7 -69 -8 -55 -1 -120 -46 -110 -75 3 -12 9
-41 11 -65 l5 -43 44 5 c24 2 44 1 44 -4 0 -5 12 -12 28 -15 69 -17 150 -56
162 -79 17 -31 26 -32 34 -1 7 30 -2 56 -20 56 -8 0 -14 9 -14 20 0 11 5 20
10 20 6 0 10 7 10 16 0 8 -5 12 -10 9 -16 -10 -70 18 -70 36 0 9 9 28 21 43
41 52 -4 102 -76 85z"/>
<path d="M2440 2634 c0 -8 5 -12 10 -9 6 3 10 10 10 16 0 5 -4 9 -10 9 -5 0
-10 -7 -10 -16z"/>
<path d="M3420 2599 c0 -5 5 -7 10 -4 6 3 10 8 10 11 0 2 -4 4 -10 4 -5 0 -10
-5 -10 -11z"/>
<path d="M819 2190 c-32 -18 -32 -58 0 -125 28 -61 31 -63 84 -79 86 -25 101
-22 114 22 23 75 38 112 45 112 5 0 8 7 8 15 0 8 5 15 11 15 12 0 43 29 38 35
-2 2 -24 -1 -49 -5 -69 -14 -100 -12 -100 5 0 12 -14 15 -67 15 -38 0 -75 -5
-84 -10z"/>
<path d="M705 2081 c-10 -17 37 -236 54 -254 4 -4 21 -5 38 -1 23 5 29 11 27
27 -4 34 -21 74 -41 94 -10 10 -25 45 -33 77 -15 58 -31 78 -45 57z"/>
<path d="M3530 1943 c0 -19 -3 -24 -9 -14 -9 14 -51 7 -51 -10 0 -5 -7 -9 -15
-9 -8 0 -15 7 -15 15 0 32 -58 3 -61 -31 -1 -8 -2 -19 -3 -26 0 -6 -7 -13 -15
-16 -9 -3 -11 0 -6 7 4 7 -1 21 -10 31 -18 19 -12 45 7 34 8 -5 9 -1 5 10 -4
10 -7 20 -7 22 0 2 -4 4 -9 4 -15 0 -40 -64 -36 -90 15 -89 23 -122 31 -130
13 -13 200 -32 242 -24 38 7 38 12 12 114 -7 25 -12 57 -11 73 0 17 -5 27 -14
27 -8 0 -15 6 -15 14 0 8 -4 18 -10 21 -6 4 -10 -6 -10 -22z"/>
<path d="M3255 1950 c3 -5 8 -10 11 -10 2 0 4 5 4 10 0 6 -5 10 -11 10 -5 0
-7 -4 -4 -10z"/>
<path d="M3295 1950 c3 -5 8 -10 11 -10 2 0 4 5 4 10 0 6 -5 10 -11 10 -5 0
-7 -4 -4 -10z"/>
<path d="M3276 1915 c4 -8 8 -15 10 -15 2 0 4 7 4 15 0 8 -4 15 -10 15 -5 0
-7 -7 -4 -15z"/>
<path d="M46 1823 c-11 -11 -6 -23 9 -23 8 0 15 4 15 9 0 13 -16 22 -24 14z"/>
<path d="M160 1812 c0 -5 -15 -13 -32 -17 l-33 -8 28 -4 c29 -5 65 21 47 32
-5 3 -10 2 -10 -3z"/>
<path d="M200 1790 c0 -5 5 -10 10 -10 6 0 10 5 10 10 0 6 -4 10 -10 10 -5 0
-10 -4 -10 -10z"/>
<path d="M308 1793 c7 -3 16 -2 19 1 4 3 -2 6 -13 5 -11 0 -14 -3 -6 -6z"/>
<path d="M3404 1642 c-16 -11 18 -139 56 -205 26 -46 37 -57 68 -64 20 -5 36
-15 35 -21 -3 -11 17 -17 40 -13 4 0 7 -6 7 -15 0 -10 7 -14 23 -12 20 3 22 8
21 58 0 30 -2 78 -5 105 l-4 50 34 -3 c42 -3 61 -17 61 -46 0 -11 5 -37 10
-57 8 -29 15 -36 35 -36 40 0 40 28 1 65 -20 18 -36 39 -36 46 0 21 51 12 71
-13 10 -13 19 -18 19 -13 0 6 20 23 45 37 40 24 51 26 108 20 43 -5 90 -2 143
9 43 8 109 18 146 22 83 8 102 20 92 57 -6 28 -8 28 -63 22 -31 -4 -78 -10
-106 -15 -27 -5 -97 -11 -155 -15 -115 -7 -214 -13 -362 -24 -90 -6 -98 -5
-98 11 0 10 6 18 13 18 8 0 8 3 -2 9 -8 5 -46 12 -85 16 -39 3 -78 8 -86 10
-8 3 -20 1 -26 -3z m416 -102 c0 -5 -4 -10 -10 -10 -5 0 -10 5 -10 10 0 6 5
10 10 10 6 0 10 -4 10 -10z m-175 -210 c3 -5 1 -10 -4 -10 -6 0 -11 5 -11 10
0 6 2 10 4 10 3 0 8 -4 11 -10z"/>
<path d="M4430 1469 c0 -5 6 -7 13 -3 8 5 9 4 2 -4 -5 -6 -23 -12 -40 -14 -16
-2 -40 -14 -52 -28 -15 -17 -25 -21 -30 -14 -5 6 -29 13 -55 16 -42 5 -48 3
-48 -13 0 -12 -7 -19 -18 -19 -47 0 -50 -12 -55 -246 l-6 -222 37 -6 c72 -12
116 -7 152 17 19 13 88 39 152 58 l118 34 0 228 0 227 -85 0 c-53 0 -85 -4
-85 -11z"/>
<path d="M330 1320 c-30 -4 -117 -14 -192 -21 l-138 -13 0 -48 c0 -48 0 -48
33 -47 17 0 55 8 82 18 l50 18 63 -29 c43 -19 72 -26 89 -22 l25 7 -26 16
c-14 8 -26 19 -26 22 0 6 128 39 154 39 25 0 37 17 30 43 -5 24 -11 27 -48 26
-22 -1 -66 -5 -96 -9z"/>
<path d="M3673 1263 c-28 -5 -29 -17 -4 -42 11 -11 15 -21 9 -23 -16 -6 0 -65
20 -73 10 -3 21 0 28 9 6 9 16 16 21 16 6 0 18 10 26 23 l16 22 0 -31 c1 -21
-5 -34 -16 -38 -20 -8 -8 -21 30 -30 l28 -7 -3 78 c-3 77 -3 78 -28 75 -48 -5
-62 -3 -79 12 -10 9 -19 15 -22 15 -2 -1 -14 -4 -26 -6z"/>
<path d="M1 1144 c0 -11 3 -14 6 -6 3 7 2 16 -1 19 -3 4 -6 -2 -5 -13z"/>
<path d="M463 1043 c3 -18 -18 -73 -29 -73 -4 0 -3 11 0 25 6 25 -8 36 -16 13
-3 -11 -3 -420 1 -482 1 -18 7 -19 124 -11 67 5 143 8 168 8 l46 0 7 138 c6
123 18 199 41 252 6 14 2 17 -21 17 -16 0 -38 7 -48 15 -15 11 -23 12 -33 3
-11 -8 -12 -7 -7 6 4 11 -3 23 -20 37 -14 11 -24 25 -21 30 13 20 -9 7 -31
-18 -19 -22 -33 -27 -82 -31 -48 -3 -60 -1 -65 12 -4 10 -1 16 8 16 8 0 15 5
15 10 0 6 -4 10 -10 10 -5 0 -10 9 -10 20 0 11 -5 20 -11 20 -6 0 -9 -8 -6
-17z m20 -116 c3 -8 -1 -14 -8 -14 -7 0 -11 6 -8 14 3 7 6 13 8 13 2 0 5 -6 8
-13z"/>
<path d="M640 1050 c0 -5 5 -10 11 -10 5 0 7 5 4 10 -3 6 -8 10 -11 10 -2 0
-4 -4 -4 -10z"/>
<path d="M523 1025 c-8 -23 4 -30 22 -12 19 20 19 27 0 27 -9 0 -18 -7 -22
-15z"/>
<path d="M3655 1003 c4 -21 15 -49 25 -63 9 -14 30 -48 44 -77 23 -43 41 -60
112 -105 53 -33 82 -58 79 -66 -3 -7 0 -10 5 -7 6 3 10 -1 10 -9 0 -10 -6 -13
-15 -10 -8 4 -22 1 -30 -6 -13 -10 -19 -10 -33 4 -25 22 -30 20 -34 -11 -3
-26 -17 -33 -71 -34 -10 0 -21 -8 -24 -17 -4 -9 -17 -30 -31 -46 -13 -17 -28
-40 -33 -53 -5 -13 -13 -23 -19 -23 -5 0 -10 -6 -10 -13 0 -8 -13 -33 -30 -55
-16 -23 -30 -48 -30 -57 0 -8 -11 -24 -24 -37 -14 -13 -26 -32 -28 -43 -3 -19
4 -20 237 -25 132 -3 226 -7 208 -8 -30 -2 -32 -5 -35 -44 -3 -39 -28 -69 -28
-33 0 9 -4 13 -10 10 -5 -3 -10 0 -10 8 0 20 -33 47 -58 47 -28 0 -30 -34 -2
-53 19 -13 18 -14 -18 -25 -52 -15 -143 -28 -396 -57 -120 -14 -222 -27 -225
-29 -3 -2 -35 -7 -71 -10 -36 -4 -78 -8 -95 -11 -16 -2 -65 -7 -109 -10 -43
-3 -83 -8 -88 -11 -5 -3 -39 -9 -76 -14 -52 -6 -24 -8 120 -8 102 0 189 2 192
6 11 10 51 10 57 0 4 -6 9 -6 13 1 4 6 2 11 -3 11 -6 0 -11 4 -11 9 0 8 192
41 243 41 17 0 27 -5 27 -15 0 -8 -5 -15 -11 -15 -11 0 -39 -24 -39 -34 0 -3
286 -6 635 -6 l635 0 0 156 0 157 -179 -7 c-178 -7 -179 -7 -195 16 -37 52
-12 68 104 68 31 0 105 3 163 7 l107 6 0 64 c0 46 -5 69 -16 81 -15 15 -15 16
2 23 11 4 -17 8 -63 8 -78 1 -83 0 -83 -20 0 -15 -4 -19 -16 -15 -9 3 -72 6
-140 6 -172 0 -161 19 14 23 75 1 3 4 -160 5 -257 2 -298 4 -298 17 0 8 6 15
14 15 8 0 27 5 43 12 15 6 34 10 40 9 8 -1 10 4 7 14 -8 20 5 19 27 -1 12 -11
27 -14 44 -10 34 9 32 19 -12 49 -46 30 -136 117 -181 175 -33 41 -33 42 -8
32 80 -30 247 -147 299 -210 17 -20 25 -22 70 -15 75 9 109 13 132 14 17 1 17
3 5 11 -11 7 -11 10 -2 10 12 0 -12 26 -96 102 -22 20 -63 47 -91 59 -28 12
-51 27 -51 35 0 7 -16 16 -37 20 -21 4 -67 20 -102 36 -36 16 -71 26 -78 24
-7 -3 -13 1 -13 10 0 8 -4 13 -9 10 -9 -6 -102 19 -133 35 -13 6 -18 5 -18 -3
0 -9 -3 -9 -12 0 -22 22 -30 13 -23 -25z m314 -447 c18 4 31 2 31 -4 0 -5 12
-13 28 -17 25 -7 25 -8 7 -15 -23 -9 -131 -5 -157 5 -28 11 -21 25 13 25 21 0
28 4 23 13 -6 9 -5 9 8 -1 9 -7 27 -10 47 -6z m116 4 c3 -5 2 -10 -4 -10 -5 0
-13 5 -16 10 -3 6 -2 10 4 10 5 0 13 -4 16 -10z m-305 -85 c0 -8 -4 -15 -10
-15 -5 0 -10 -7 -10 -15 0 -8 -6 -15 -14 -15 -12 0 -12 4 0 30 16 32 34 40 34
15z m-41 -71 c-12 -14 -1 -15 117 -9 71 3 139 8 151 11 12 2 28 -2 36 -10 8
-8 36 -16 63 -18 l49 -3 0 -40 c0 -36 -3 -40 -25 -41 -320 -18 -324 -17 -386
39 -28 25 -32 38 -25 80 0 4 8 7 17 7 14 0 14 -2 3 -16z m91 -188 c0 -3 -4 -8
-10 -11 -5 -3 -10 -1 -10 4 0 6 5 11 10 11 6 0 10 -2 10 -4z m607 -111 c28
-14 63 -45 51 -45 -6 0 -101 50 -107 56 -11 10 29 2 56 -11z m-57 -25 c0 -5
-4 -10 -10 -10 -5 0 -10 5 -10 10 0 6 5 10 10 10 6 0 10 -4 10 -10z"/>
<path d="M4401 803 c23 -21 54 -50 68 -65 25 -29 45 -33 100 -22 30 6 31 9 31
55 0 47 -1 48 -37 58 -50 14 -86 14 -101 -1 -10 -10 -17 -10 -32 0 -11 6 -32
12 -46 12 -26 0 -25 -1 17 -37z"/>
<path d="M3818 693 c7 -3 16 -2 19 1 4 3 -2 6 -13 5 -11 0 -14 -3 -6 -6z"/>
<path d="M1038 477 c-16 -13 -28 -30 -28 -39 0 -21 40 -35 50 -18 6 9 9 9 15
1 12 -20 -3 -41 -30 -41 -14 0 -25 -4 -25 -10 0 -5 -8 -10 -17 -10 -13 0 -14
-3 -5 -12 24 -24 14 -39 -25 -37 -36 2 -73 27 -73 49 0 5 -4 10 -10 10 -17 0
-11 28 8 39 14 9 12 11 -13 11 -16 1 -39 5 -50 10 -18 8 -19 9 -1 9 12 1 16 6
12 17 -3 9 -6 18 -6 20 0 2 -9 4 -20 4 -16 0 -20 -7 -20 -36 0 -21 -4 -33 -10
-29 -6 4 -10 -9 -10 -32 0 -22 -5 -44 -12 -51 -8 -8 -8 -15 0 -24 6 -8 12 -25
14 -38 6 -38 19 -55 63 -77 94 -48 140 -60 149 -38 8 21 36 19 36 -2 0 -15 2
-16 10 -3 11 18 16 13 25 -23 6 -23 4 -27 -15 -27 -11 0 -19 -4 -15 -9 7 -13
-24 -21 -60 -16 -16 2 -30 4 -30 5 0 2 -28 7 -61 13 -23 3 -62 26 -86 51 -19
19 -51 114 -44 132 8 20 -17 17 -47 -6 -30 -24 -41 -25 -33 -5 7 20 -24 20
-50 0 -10 -8 -26 -15 -35 -15 -8 0 -24 -7 -35 -16 -16 -13 -16 -15 -1 -10 11
3 17 0 17 -9 0 -8 -6 -15 -14 -15 -8 0 -17 -8 -20 -17 -6 -22 -2 -76 8 -91 5
-8 0 -12 -14 -12 -13 0 -19 -4 -14 -11 3 -6 2 -14 -4 -18 -5 -3 -12 -15 -14
-26 -3 -19 3 -20 142 -20 164 0 518 13 528 19 4 2 88 9 187 15 163 11 394 34
453 47 13 2 20 9 17 13 -3 5 1 12 7 14 7 3 0 6 -15 6 -16 1 -26 5 -23 10 4 5
-3 7 -13 4 -19 -5 -77 27 -93 51 -3 5 -13 11 -22 12 -65 9 -108 43 -73 57 6 3
3 6 -8 6 -10 1 -34 15 -52 33 -30 29 -35 31 -68 21 -27 -9 -38 -8 -48 1 -19
19 -48 28 -97 30 -37 1 -47 5 -57 26 -9 18 -13 20 -13 8 0 -20 -15 -24 -25 -8
-3 6 -18 10 -33 10 -15 0 -37 7 -48 15 -12 8 -24 12 -27 8 -4 -3 -10 2 -13 12
-5 11 -1 21 9 27 13 7 14 13 5 33 -14 31 -44 32 -80 2z m242 -289 c0 -5 -16
-8 -36 -8 -19 0 -33 4 -30 9 7 10 66 9 66 -1z m380 -8 c0 -5 -4 -10 -10 -10
-5 0 -10 5 -10 10 0 6 5 10 10 10 6 0 10 -4 10 -10z m-420 -30 c0 -5 -9 -10
-20 -10 -11 0 -20 5 -20 10 0 6 9 10 20 10 11 0 20 -4 20 -10z m-5 -30 c8 -13
-5 -13 -25 0 -13 8 -13 10 2 10 9 0 20 -4 23 -10z m85 -4 c0 -2 -11 -6 -25 -8
-14 -3 -25 -1 -25 3 0 5 11 9 25 9 14 0 25 -2 25 -4z"/>
<path d="M1207 431 c3 -12 10 -21 15 -21 13 0 6 32 -9 37 -7 3 -9 -3 -6 -16z"/>
<path d="M2 390 c0 -19 2 -27 5 -17 2 9 2 25 0 35 -3 9 -5 1 -5 -18z"/>
<path d="M422 354 c3 -41 6 -49 23 -49 15 0 21 9 26 40 4 22 6 41 5 42 0 1
-14 5 -29 8 l-28 7 3 -48z"/>
<path d="M2320 241 c-6 -13 -21 -21 -36 -21 -15 0 -23 -4 -19 -11 4 -6 14 -8
22 -5 8 3 11 2 8 -3 -3 -5 4 -12 15 -16 11 -3 20 -11 20 -16 0 -6 5 -7 10 -4
11 7 9 80 -2 91 -4 3 -11 -4 -18 -15z"/>
<path d="M440 182 c0 -11 7 -25 15 -32 12 -10 15 -9 15 8 0 11 -7 25 -15 32
-12 10 -15 9 -15 -8z"/>
<path d="M134 111 c-21 -15 -51 -31 -67 -35 -46 -11 -33 -29 16 -22 27 5 53
18 75 38 54 53 40 65 -24 19z"/>
<path d="M280 33 c-8 -2 -24 -8 -35 -13 -11 -5 -29 -11 -40 -13 -11 -3 13 -4
53 -4 59 0 72 3 67 14 -3 8 -5 17 -5 19 0 5 -20 4 -40 -3z"/>
</g>
</svg>
